<svg width="36" height="40" viewBox="0 0 36 40" fill="none" xmlns="http://www.w3.org/2000/svg">
<path d="M19.1274 7.67151H14.4807C13.8238 7.67151 13.3088 8.20885 13.3088 8.84338V25.5317C13.3088 26.1789 13.8335 26.7035 14.4807 26.7035C15.1279 26.7035 15.6526 26.1789 15.6526 25.5317V19.4483C16.7401 19.4422 18.3316 19.4342 19.1275 19.4342C20.6982 19.4342 22.1876 18.8263 23.3212 17.7225C24.4689 16.605 25.101 15.1242 25.101 13.5528C25.101 11.9815 24.4689 10.5006 23.3212 9.38307C22.1875 8.2794 20.6982 7.67151 19.1274 7.67151ZM19.1274 17.0904C18.3362 17.0904 16.7673 17.0983 15.6782 17.1044C15.6584 13.4546 15.6698 14.6819 15.6561 10.0153H19.1274C21.095 10.0153 22.7572 11.6353 22.7572 13.5528C22.7572 15.4704 21.095 17.0904 19.1274 17.0904Z" fill="#24AB70"/>
<path d="M30.1534 5.03406C26.9072 1.78781 22.591 0 18 0C13.4089 0 9.09278 1.78781 5.84653 5.03406C-3.59058 14.4712 0.891686 30.739 13.9375 33.8911V38.0469C13.9375 39.1238 14.8136 40 15.8906 40H20.1093C21.1863 40 22.0625 39.1238 22.0625 38.0469V33.8911C35.1208 30.7359 39.5839 14.4645 30.1534 5.03406ZM19.7187 37.6562H16.2812V34.2899C17.4211 34.403 18.5789 34.403 19.7187 34.2899V37.6562ZM20.6802 31.7902C11.645 33.4389 3.15622 26.5484 3.15622 17.1875C3.15622 9.00266 9.81504 2.34375 18 2.34375C26.1849 2.34375 32.8437 9.00266 32.8437 17.1875C32.8437 24.3529 27.7408 30.5017 20.6802 31.7902Z" fill="#24AB70"/>
</svg>
