<svg width="16" height="16" viewBox="0 0 16 16" fill="none" xmlns="http://www.w3.org/2000/svg">
<g clip-path="url(#clip0_17_73)">
<path d="M11.7068 14C11.6001 14.0004 11.495 13.9753 11.4001 13.9266L8.00009 12.1466L4.60009 13.9266C4.48968 13.9847 4.3652 14.0106 4.2408 14.0014C4.1164 13.9923 3.99707 13.9484 3.89637 13.8748C3.79567 13.8012 3.71765 13.7008 3.67116 13.585C3.62468 13.4693 3.6116 13.3428 3.63342 13.22L4.30009 9.46664L1.55342 6.79997C1.46772 6.71446 1.40693 6.60722 1.37757 6.48977C1.34821 6.37232 1.35138 6.24909 1.38675 6.13331C1.42539 6.01482 1.49647 5.90954 1.59192 5.82941C1.68737 5.74928 1.80337 5.69751 1.92675 5.67997L5.72675 5.12664L7.40009 1.70664C7.45468 1.59393 7.53991 1.49887 7.64603 1.43236C7.75214 1.36584 7.87485 1.33057 8.00009 1.33057C8.12532 1.33057 8.24803 1.36584 8.35415 1.43236C8.46026 1.49887 8.5455 1.59393 8.60009 1.70664L10.2934 5.11997L14.0934 5.67331C14.2168 5.69084 14.3328 5.74262 14.4283 5.82275C14.5237 5.90288 14.5948 6.00816 14.6334 6.12664C14.6688 6.24242 14.672 6.36565 14.6426 6.4831C14.6132 6.60055 14.5524 6.70779 14.4668 6.79331L11.7201 9.45997L12.3868 13.2133C12.4106 13.3383 12.3981 13.4675 12.3508 13.5856C12.3036 13.7037 12.2235 13.8059 12.1201 13.88C11.9994 13.9646 11.854 14.0068 11.7068 14Z" fill="currentColor"/>
</g>
<defs>
<clipPath id="clip0_17_73">
<rect width="16" height="16" fill="currentColor"/>
</clipPath>
</defs>
</svg>
